# xmcd CD database file
#
# Track frame offsets:
#	150
#	12522
#	23663
#	36399
#	48230
#	56655
#	66685
#	76695
#	89114
#	99936
#	110273
#	118247
#	130060
#	140875
#	153404
#	164601
#	176633
#	184389
#	194594
#
# Disc length: 2725 seconds
#
# Revision: 0
# Processed by: cddbd v1.5.2PL0 Copyright (c) Steve Scherf et al.
# Submitted via: CDex 1.70beta2
#
DISCID=180aa313
DTITLE=Johnny Cash - Johnny Cash
DYEAR=2008
DGENRE=Country
TTITLE0=I Walked The Line
TTITLE1=Cry, Cry, Cry
TTITLE2=Folsom Prison Blues
TTITLE3=So Doggone Lonesome
TTITLE4=Country Boy
TTITLE5=Get Rhythm
TTITLE6=Hey Porter
TTITLE7=Give My Love To Rose
TTITLE8=Train Of Love
TTITLE9=There You Go
TTITLE10=Wreck Of The Old 97
TTITLE11=Doin' My Time
TTITLE12=I Heard This Lonesome Whistle Blow
TTITLE13=Next In Line
TTITLE14=Don't Make Me Go
TTITLE15=Home Of The Blues
TTITLE16=If The Good Lord's Willing
TTITLE17=I Was There When It Happened
TTITLE18=Rock Island Line
EXTD=YEAR: 2008
EXTT0=
EXTT1=
EXTT2=
EXTT3=
EXTT4=
EXTT5=
EXTT6=
EXTT7=
EXTT8=
EXTT9=
EXTT10=
EXTT11=
EXTT12=
EXTT13=
EXTT14=
EXTT15=
EXTT16=
EXTT17=
EXTT18=
PLAYORDER=
